<svg xmlns="http://www.w3.org/2000/svg" xmlns:xlink="http://www.w3.org/1999/xlink" width="500" zoomAndPan="magnify" viewBox="0 0 375 374.999991" height="500" preserveAspectRatio="xMidYMid meet" version="1.2"><defs><clipPath id="1a160b8791"><path d="M 93.800781 60.664062 L 281.300781 60.664062 L 281.300781 314.164062 L 93.800781 314.164062 Z M 93.800781 60.664062 "/></clipPath></defs><g id="ea95948234"><g clip-rule="nonzero" clip-path="url(#1a160b8791)"><path style=" stroke:none;fill-rule:nonzero;fill:#546ffd;fill-opacity:1;" d="M 104.308594 229.132812 L 109.679688 229.132812 C 110.808594 248.863281 118.722656 265.085938 133.535156 277.921875 C 148.007812 290.582031 164.6875 296.859375 183.453125 296.859375 C 197.925781 296.859375 209.6875 292.789062 218.84375 284.648438 C 228.003906 276.507812 232.355469 266.671875 232.355469 255.308594 C 232.355469 243.265625 227.945312 233.9375 219.183594 227.324219 C 210.761719 220.878906 193.96875 213.527344 168.980469 205.386719 C 148.914062 198.773438 134.722656 193.234375 126.1875 188.9375 C 116.292969 183.847656 108.605469 176.953125 103.007812 168.359375 C 96.960938 159.597656 93.964844 149.703125 93.964844 138.734375 C 93.964844 126.582031 98.035156 114.652344 106.175781 102.949219 C 104.363281 109 103.402344 114.199219 103.402344 118.722656 C 103.402344 130.765625 106.230469 141.28125 111.941406 150.382812 C 117.820312 159.765625 125 166.890625 133.648438 171.636719 C 142.242188 176.554688 156.714844 182.210938 176.839844 188.484375 C 203.183594 196.511719 222.179688 205.332031 233.882812 215.054688 C 245.132812 224.441406 250.730469 237.105469 250.730469 252.933594 C 250.730469 268.535156 244.851562 282.613281 233.148438 295.164062 C 221.277344 307.996094 203.523438 314.328125 179.949219 314.328125 C 170.394531 314.328125 157.167969 312.519531 140.207031 309.011719 C 125.394531 305.90625 114.316406 304.265625 106.910156 304.207031 L 105.269531 302.398438 C 105.4375 299.796875 105.550781 296.351562 105.550781 292.222656 C 105.550781 287.304688 105.101562 279.671875 104.195312 269.328125 C 103.402344 258.980469 103.066406 251.351562 103.066406 246.148438 C 103.347656 239.648438 103.742188 233.9375 104.308594 229.132812 Z M 267.519531 132.574219 L 262.714844 132.574219 C 262.542969 114.652344 255.476562 101.425781 241.457031 92.832031 C 227.777344 84.40625 211.097656 80.109375 191.539062 80.109375 C 175.9375 80.109375 163.214844 83.445312 153.152344 90.003906 C 142.976562 96.617188 137.945312 104.535156 137.945312 113.863281 C 137.945312 123.753906 142.015625 131.5 149.988281 137.210938 C 158.355469 143.429688 174.691406 150.722656 199.226562 159.144531 C 222.011719 167.003906 237.953125 173.445312 247.054688 178.308594 C 256.777344 183.734375 264.863281 191.367188 271.308594 201.488281 C 277.753906 211.832031 281.03125 223.253906 281.03125 235.917969 C 281.03125 255.195312 273.964844 270.230469 259.773438 281.199219 C 265.03125 273.964844 267.632812 263.789062 267.632812 250.726562 C 267.632812 238.402344 264.804688 227.492188 259.097656 217.9375 C 253.046875 208.214844 245.699219 200.527344 236.878906 194.761719 C 227.945312 188.878906 213.359375 182.605469 193.179688 175.992188 C 162.820312 165.984375 142.976562 157.390625 133.820312 150.324219 C 124.605469 143.089844 119.96875 131.839844 119.96875 116.574219 C 119.96875 98.992188 127.035156 85.253906 141.222656 75.191406 C 155.414062 65.46875 175.484375 60.664062 201.546875 60.664062 C 219.296875 60.664062 240.890625 63.773438 266.503906 69.878906 L 266.503906 71.519531 L 266.953125 80.28125 C 266.953125 84.917969 267.125 90.457031 267.40625 96.902344 C 267.859375 104.757812 268.085938 111.714844 268.085938 117.707031 C 267.914062 121.832031 267.746094 126.695312 267.519531 132.574219 Z M 267.519531 132.574219 "/></g></g></svg>